<?xml version="1.0" standalone="no"?>
<!DOCTYPE svg PUBLIC "-//W3C//DTD SVG 20010904//EN" "http://www.w3.org/TR/2001/REC-SVG-20010904/DTD/svg10.dtd">
<svg version="1.0" xmlns="http://www.w3.org/2000/svg"
    width="640.000000pt" height="640.000000pt" viewBox="0 0 640.000000 640.000000"
    preserveAspectRatio="xMidYMid meet">

    <!-- <defs>
        <linearGradient id="gradient" x1="0%" y1="0%" x2="0%" y2="100%">
            <stop offset="0%" style="stop-color:#C2D7BC;stop-opacity:1" />
            <stop offset="60%" style="stop-color:#BEDFBF;stop-opacity:1" />
            <stop offset="100%" style="stop-color:#BEDFBF;stop-opacity:1" />
        </linearGradient>
    </defs> -->

    <g transform="translate(0.000000,640.000000) scale(0.100000,-0.100000)"
        fill="black"
        stroke="none">
        <path d="M2565 6094 c-107 -21 -136 -29 -175 -49 -25 -12 -49 -21 -55 -19 -5
1 -44 13 -85 25 -106 33 -292 34 -400 1 -210 -63 -379 -194 -478 -372 -48 -86
-91 -229 -98 -325 -6 -73 -9 -85 -23 -80 -33 13 -219 17 -287 6 -303 -47 -543
-232 -675 -518 -105 -229 -84 -576 49 -790 43 -70 130 -180 147 -186 13 -6 15
-41 15 -260 0 -140 -3 -287 -6 -328 -7 -73 -7 -75 -49 -106 -50 -37 -101 -111
-116 -167 -6 -23 -12 -73 -13 -112 -1 -64 -4 -74 -37 -115 -70 -86 -109 -170
-121 -262 -24 -179 24 -326 147 -452 67 -69 169 -131 231 -141 64 -10 67 -14
45 -65 -61 -137 -37 -296 61 -413 l41 -48 2 -97 c4 -163 10 -178 130 -331 123
-156 208 -227 345 -286 102 -44 195 -58 355 -51 147 6 177 13 292 68 90 43
150 51 159 21 19 -58 44 -101 86 -144 135 -138 371 -150 539 -26 l26 20 52
-27 c69 -35 192 -51 284 -38 38 5 89 6 115 2 26 -4 104 -8 173 -8 115 -1 130
-3 171 -26 63 -35 178 -50 273 -36 75 11 136 36 207 85 22 14 40 21 43 15 4
-5 43 -28 87 -50 157 -79 359 -79 515 0 87 43 174 116 213 179 23 37 28 40 72
40 55 0 140 18 183 40 82 41 165 136 186 216 6 22 28 60 50 84 83 95 135 208
155 339 6 38 9 42 43 48 98 18 206 97 250 184 29 55 49 183 40 245 -8 46 -6
51 25 90 113 139 174 362 147 535 -10 62 -9 79 5 119 20 56 23 217 6 278 -7
23 -24 59 -38 80 -21 30 -24 41 -15 54 65 88 97 263 76 418 -8 61 -11 141 -7
217 13 277 3 355 -58 447 -38 58 -147 143 -212 166 l-50 17 6 42 c3 24 16 60
29 80 52 82 68 126 87 243 19 121 19 121 -1 238 -24 140 -62 218 -155 321 -53
60 -62 75 -67 119 -8 66 -38 124 -93 177 -94 92 -170 127 -274 127 -53 0 -57
2 -80 34 -25 38 -127 122 -175 146 -28 14 -89 30 -160 42 -16 2 -65 0 -108 -6
-68 -10 -83 -9 -115 6 -20 10 -86 25 -147 34 l-110 16 -52 67 c-98 125 -187
164 -378 163 -94 0 -133 -5 -177 -21 l-58 -20 -57 28 c-109 53 -233 54 -334 3
l-49 -25 -66 27 c-95 38 -201 53 -354 52 -74 0 -144 -2 -155 -4z" />
    </g>
</svg>