<svg xmlns="http://www.w3.org/2000/svg" xmlns:xlink="http://www.w3.org/1999/xlink" width="24" height="24" aria-hidden="true" class="gameIcon-1mDo1J medium-1vKkpm gameIcon-1siQqm" role="img" viewBox="0 0 40 40"><g fill="none" fill-rule="evenodd"><path fill="#060607" fill-opacity=".8" d="M21.226 30v-4.154h-3.755V30h3.755zm-.512-8.62c3.67-1.337 5.718-2.959 5.718-6.145 0-3.272-2.36-5.235-6.088-5.235-2.589 0-4.637.825-6.344 2.048l.484 3.3c1.621-1.251 3.47-2.162 5.49-2.162 1.707 0 2.845.854 2.845 2.305 0 1.593-1.08 2.475-3.812 3.442l-.882.342.342 4.523 2.076-.455.171-1.963z"/><rect width="38" height="38" x="1" y="1" fill="none" stroke="#060607" stroke-opacity=".4" stroke-width="2" rx="5"/><circle cx="7" cy="7" r="2" fill="#060607" fill-opacity=".4"/><circle cx="7" cy="33" r="2" fill="#060607" fill-opacity=".4"/><circle cx="33" cy="7" r="2" fill="#060607" fill-opacity=".4"/><circle cx="33" cy="33" r="2" fill="#060607" fill-opacity=".4"/></g></svg>