<?xml version="1.0" standalone="no"?>
<!DOCTYPE svg PUBLIC "-//W3C//DTD SVG 20010904//EN" "http://www.w3.org/TR/2001/REC-SVG-20010904/DTD/svg10.dtd">
<svg version="1.0" xmlns="http://www.w3.org/2000/svg"
    width="488.000000pt" height="511.000000pt" viewBox="0 0 488.000000 511.000000"
    preserveAspectRatio="xMidYMid meet">

    <g transform="translate(0.000000,511.000000) scale(0.100000,-0.100000)"
        fill="#000000" stroke="none">
        <path
            d="M2250 4870 c-738 -67 -1382 -473 -1761 -1112 -294 -495 -388 -1098
-258 -1658 53 -227 177 -517 306 -715 350 -535 913 -901 1553 -1010 129 -22
457 -31 590 -16 1071 122 1930 1007 2021 2081 36 430 -76 919 -297 1298 -364
623 -970 1027 -1685 1121 -112 15 -360 21 -469 11z m455 -215 c282 -37 560
-135 789 -277 128 -79 321 -238 305 -251 -2 -2 -96 -22 -209 -44 -197 -38
-219 -39 -220 -10 0 4 15 17 34 28 22 13 33 26 29 35 -8 22 -22 17 -66 -22
-85 -78 -185 -98 -336 -69 -144 28 -241 4 -358 -89 -78 -62 -83 -78 -50 -137
15 -27 27 -51 27 -54 0 -11 -93 -66 -99 -58 -3 5 -21 33 -40 61 -18 29 -35 52
-36 52 -2 0 -39 -16 -82 -36 -73 -33 -77 -36 -55 -48 21 -11 152 -161 152
-175 0 -3 -30 -21 -66 -40 -83 -43 -92 -60 -76 -152 7 -38 12 -79 12 -90 0
-12 -32 -67 -72 -123 -39 -55 -79 -119 -89 -141 -84 -191 -24 -464 116 -534
45 -23 63 -25 222 -29 95 -3 173 -6 173 -9 0 -2 -4 -12 -9 -21 -6 -12 0 -50
20 -122 24 -82 32 -138 39 -255 5 -82 25 -242 43 -355 30 -181 39 -214 73
-283 21 -42 44 -77 50 -77 27 0 143 41 166 59 32 25 75 110 123 239 33 90 43
107 85 142 74 62 84 92 76 226 -5 103 -4 120 19 191 24 76 40 105 130 231 40
57 104 217 91 230 -3 2 -40 0 -83 -5 -43 -6 -80 -9 -82 -7 -9 8 28 39 118 98
149 98 178 141 169 252 l-3 46 57 -4 c111 -8 196 -87 237 -219 38 -124 51
-153 89 -204 34 -45 114 -115 131 -115 4 0 -3 30 -15 68 -48 138 -23 246 76
335 28 26 55 47 59 47 17 0 82 -79 101 -123 30 -67 40 -199 29 -356 -50 -710
-496 -1373 -1139 -1696 -286 -143 -575 -209 -915 -209 -324 1 -613 65 -912
204 -145 67 -214 155 -221 281 -5 82 17 137 82 207 47 50 120 187 151 282 25
78 48 113 94 138 44 25 37 8 105 261 20 73 36 150 36 171 0 54 -29 84 -125
130 -69 33 -93 51 -146 112 -124 140 -173 181 -290 248 -99 56 -122 65 -174
68 -45 2 -66 -1 -86 -15 -15 -10 -45 -31 -67 -46 -39 -27 -41 -28 -71 -13 -22
12 -33 27 -41 59 -34 130 -47 162 -63 159 -20 -3 -20 -3 -2 73 8 33 14 64 15
68 0 4 -21 -7 -47 -25 -38 -26 -57 -32 -92 -31 -24 1 -48 6 -54 12 -13 13 15
153 39 188 22 34 75 54 159 60 70 6 72 5 92 -23 11 -16 24 -39 27 -51 11 -34
21 -28 35 20 28 94 83 181 171 268 72 72 102 94 188 137 57 28 149 66 205 83
56 18 103 33 105 35 2 1 -22 68 -54 149 -32 84 -52 150 -47 154 5 3 33 21 61
40 29 18 52 36 52 40 0 4 -29 28 -65 52 -37 26 -65 51 -65 62 0 9 3 17 8 17
27 -1 244 -38 249 -43 3 -4 0 -27 -7 -51 -11 -41 -10 -49 10 -91 39 -81 50
-82 176 -30 174 73 414 198 414 215 0 41 18 40 -586 40 -357 0 -574 4 -574 10
0 5 32 36 72 70 255 214 572 350 948 405 122 18 416 18 555 0z m-2140 -1920
c76 -37 100 -58 149 -131 25 -39 41 -52 81 -66 88 -31 102 -75 55 -169 -33
-63 -45 -157 -31 -241 18 -110 56 -182 139 -262 86 -84 106 -127 121 -262 7
-56 25 -189 40 -297 23 -156 27 -204 19 -236 -6 -23 -14 -41 -17 -41 -10 0
-217 213 -273 280 -227 274 -376 597 -439 950 -21 114 -39 490 -26 524 5 14
12 14 59 0 29 -8 85 -30 123 -49z" />
        <path
            d="M795 2971 c-18 -7 -17 -9 12 -24 73 -38 256 -108 269 -103 24 9 15
35 -13 43 -16 3 -65 26 -111 50 -80 42 -116 50 -157 34z" />
        <path
            d="M3495 1910 c-57 -71 -95 -146 -95 -189 0 -20 10 -56 21 -80 l20 -45
34 49 c50 69 77 148 79 227 2 91 -10 99 -59 38z" />
    </g>
</svg>